<svg width="224" height="224" viewBox="0 0 224 224" fill="none" xmlns="http://www.w3.org/2000/svg">
<g clip-path="url(#clip0_4002_106)">
<path d="M180.25 0H43.75C19.5875 0 0 19.5875 0 43.75V180.25C0 204.412 19.5875 224 43.75 224H180.25C204.412 224 224 204.412 224 180.25V43.75C224 19.5875 204.412 0 180.25 0Z" fill="#0E1628"/>
<path opacity="0.5" d="M180.25 0H43.75C19.5875 0 0 19.5875 0 43.75V180.25C0 204.412 19.5875 224 43.75 224H180.25C204.412 224 224 204.412 224 180.25V43.75C224 19.5875 204.412 0 180.25 0Z" fill="url(#paint0_radial_4002_106)"/>
<path d="M59.4999 169.531C47.5416 114.844 65.0416 81.6666 112 69.9999C156.917 58.3333 175.729 53.8124 168.437 56.4374" stroke="#4A90D9" stroke-opacity="0.35" stroke-width="1.75" stroke-linecap="round" stroke-dasharray="3.06 2.19"/>
<path d="M59.5 169.531C74 111 154 115 168.438 56.4375" stroke="white" stroke-opacity="0.18" stroke-width="1.09375" stroke-linecap="round"/>
<path d="M112 157.938C137.371 157.938 157.938 137.371 157.938 112C157.938 86.6294 137.371 66.0625 112 66.0625C86.6294 66.0625 66.0625 86.6294 66.0625 112C66.0625 137.371 86.6294 157.938 112 157.938Z" stroke="#4A90D9" stroke-opacity="0.2" stroke-width="0.328125" stroke-dasharray="4.38 3.06"/>
<path d="M112 149.625C132.78 149.625 149.625 132.78 149.625 112C149.625 91.2203 132.78 74.375 112 74.375C91.2203 74.375 74.375 91.2203 74.375 112C74.375 132.78 91.2203 149.625 112 149.625Z" stroke="white" stroke-opacity="0.12" stroke-width="0.4375"/>
<path d="M112 138.25C126.497 138.25 138.25 126.497 138.25 112C138.25 97.5025 126.497 85.75 112 85.75C97.5025 85.75 85.75 97.5025 85.75 112C85.75 126.497 97.5025 138.25 112 138.25Z" stroke="#4A90D9" stroke-opacity="0.85" stroke-width="2.5"/>
<path d="M112 125.125C119.249 125.125 125.125 119.249 125.125 112C125.125 104.751 119.249 98.875 112 98.875C104.751 98.875 98.875 104.751 98.875 112C98.875 119.249 104.751 125.125 112 125.125Z" fill="url(#paint1_radial_4002_106)"/>
<path d="M112 123.375C118.282 123.375 123.375 118.282 123.375 112C123.375 105.718 118.282 100.625 112 100.625C105.718 100.625 100.625 105.718 100.625 112C100.625 118.282 105.718 123.375 112 123.375Z" fill="#4A90D9"/>
<path d="M108.5 111.344C110.071 111.344 111.344 110.071 111.344 108.5C111.344 106.929 110.071 105.656 108.5 105.656C106.929 105.656 105.656 106.929 105.656 108.5C105.656 110.071 106.929 111.344 108.5 111.344Z" fill="white" fill-opacity="0.25"/>
<path d="M59.5 176.531C63.366 176.531 66.5 173.397 66.5 169.531C66.5 165.665 63.366 162.531 59.5 162.531C55.634 162.531 52.5 165.665 52.5 169.531C52.5 173.397 55.634 176.531 59.5 176.531Z" fill="#142040" stroke="#4A90D9" stroke-opacity="0.5" stroke-width="1.25"/>
<path d="M59.5 173.031C61.433 173.031 63 171.464 63 169.531C63 167.598 61.433 166.031 59.5 166.031C57.567 166.031 56 167.598 56 169.531C56 171.464 57.567 173.031 59.5 173.031Z" fill="#4A90D9" fill-opacity="0.7"/>
<path d="M168.438 62.5625C171.82 62.5625 174.562 59.8202 174.562 56.4375C174.562 53.0548 171.82 50.3125 168.438 50.3125C165.055 50.3125 162.312 53.0548 162.312 56.4375C162.312 59.8202 165.055 62.5625 168.438 62.5625Z" fill="#C9A800"/>
<path d="M166.688 56.6562C167.775 56.6562 168.656 55.7748 168.656 54.6875C168.656 53.6002 167.775 52.7188 166.688 52.7188C165.6 52.7188 164.719 53.6002 164.719 54.6875C164.719 55.7748 165.6 56.6562 166.688 56.6562Z" fill="white" fill-opacity="0.3"/>
</g>
<defs>
<radialGradient id="paint0_radial_4002_106" cx="0" cy="0" r="1" gradientUnits="userSpaceOnUse" gradientTransform="translate(156.8 56) scale(145.6)">
<stop stop-color="#1E4D8C"/>
<stop offset="1" stop-color="#0E1628" stop-opacity="0"/>
</radialGradient>
<radialGradient id="paint1_radial_4002_106" cx="0" cy="0" r="1" gradientUnits="userSpaceOnUse" gradientTransform="translate(112 112) scale(13.125)">
<stop stop-color="#7BB8F5" stop-opacity="0.5"/>
<stop offset="1" stop-color="#4A90D9" stop-opacity="0"/>
</radialGradient>
<clipPath id="clip0_4002_106">
<rect width="224" height="224" fill="white"/>
</clipPath>
</defs>
</svg>
